<svg width="90" height="76" viewBox="0 0 90 76" fill="none" xmlns="http://www.w3.org/2000/svg">
<path d="M23.7615 24.7793C23.8501 19.3669 25.6275 14.6173 29.2921 10.5855C32.83 6.69291 37.2249 4.38779 42.4178 3.81784C49.7469 3.01568 55.9573 5.38414 60.9433 10.8725C61.3148 11.2778 61.2599 11.5227 60.8842 11.8942C56.0839 16.6734 51.2964 21.4652 46.5088 26.2612C45.2 27.5699 44.9256 29.5542 45.8206 31.0614C47.1505 33.2948 50.1269 33.6916 51.9719 31.8593C54.543 29.3093 57.0761 26.7171 59.6725 24.1882C61.3992 22.508 63.0331 20.739 64.7683 19.0671C65.2242 18.6281 65.2918 18.6323 65.4311 19.2402C67.4238 27.6713 65.3931 34.9497 58.9632 40.8012C54.6443 44.7318 49.4134 46.4036 43.5999 46.0532C38.5802 45.7492 34.2063 43.8241 30.508 40.3875C30.014 39.9315 29.5665 39.4376 29.1063 38.952C28.5575 38.3694 28.5617 38.3399 29.1232 37.7784C33.9235 32.9739 38.7279 28.1737 43.5282 23.365C44.6554 22.2335 44.9678 20.5321 44.3261 19.0967C43.1566 16.4834 39.9354 15.9092 37.8751 17.961C33.7968 22.0267 29.7269 26.105 25.6571 30.1791C25.4798 30.3564 25.3024 30.5421 25.1209 30.7152C24.7325 31.091 24.6649 31.0783 24.5172 30.5337C24.0063 28.6507 23.7572 26.734 23.7615 24.7793Z" fill="white"/>
<path d="M20.1053 25.1847C20.2235 18.6197 22.25 13.0849 26.4127 8.3944C30.4953 3.79259 35.6206 1.05683 41.7043 0.242013C48.8096 -0.712124 55.1382 1.24259 60.7321 5.67975C61.796 6.52412 62.7459 7.49937 63.6663 8.49572C63.9112 8.7617 63.9407 8.97279 63.6621 9.23033C63.3539 9.51319 63.0584 9.8045 62.7797 10.1169C62.5095 10.4209 62.3238 10.3449 62.0831 10.0705C58.3214 5.82752 53.6648 3.18886 48.0201 2.4627C41.4467 1.61834 35.5446 3.29863 30.4446 7.55003C26.2523 11.0457 23.6812 15.5293 22.6933 20.8995C22.0516 24.3952 22.2415 27.8613 23.2801 31.2599C23.4321 31.7539 23.3688 32.0747 22.9804 32.3956C22.6764 32.6489 22.402 32.9444 22.1318 33.2358C21.8658 33.5228 21.7011 33.5777 21.5449 33.1302C20.937 31.395 20.5064 29.6218 20.3079 27.798C20.2108 26.827 20.1602 25.8517 20.1053 25.1847Z" fill="white"/>
<path d="M69.8133 24.8766C69.6994 32.2142 66.9805 38.4203 61.5512 43.3556C57.5024 47.0371 52.6853 49.1438 47.2138 49.5829C38.9179 50.2499 31.9898 47.3748 26.3494 41.2996C26.0666 40.9956 26.0497 40.7634 26.3663 40.4848C26.7463 40.1513 27.0629 39.5855 27.4809 39.4969C27.9833 39.3913 28.207 40.0964 28.5448 40.4426C32.0743 44.0565 36.2961 46.3658 41.2863 47.1806C46.7705 48.0799 51.9254 47.092 56.6792 44.2127C61.8594 41.0758 65.2326 36.5289 66.8412 30.707C67.9684 26.616 67.8882 22.5039 66.6765 18.4299C66.5499 18.0119 66.5794 17.7164 66.9256 17.4251C67.2422 17.1591 67.5167 16.8382 67.8164 16.5469C68.2006 16.1712 68.2681 16.1838 68.4497 16.7031C68.969 18.1934 69.3405 19.726 69.5685 21.288C69.7373 22.4786 69.826 23.6692 69.8133 24.8766Z" fill="white"/>
<path d="M19.092 75.9904C13.0633 75.9904 7.03445 75.9904 1.00565 75.9904C0.824115 75.9904 0.642575 75.9904 0.461035 75.9819C0.165506 75.9693 0.0684037 75.8299 0.207725 75.5555C0.714346 74.5507 1.48694 73.9048 2.63951 73.7866C2.8886 73.7612 3.14613 73.7781 3.39944 73.7781C14.752 73.7781 26.1003 73.7781 37.4529 73.7781C38.4323 73.7781 38.5337 73.6979 38.7912 72.7353C39.682 69.4507 40.5813 66.1661 41.451 62.8773C41.5734 62.4214 41.7845 62.2314 42.2404 62.2778C42.4389 62.2989 42.6373 62.2736 42.8357 62.2863C43.6505 62.3243 44.0432 62.852 43.8279 63.6499C42.9413 66.9556 42.0462 70.2571 41.1554 73.5586C40.8092 74.8378 40.024 75.6273 38.6856 75.8299C38.1115 75.9144 37.5415 75.9946 36.9589 75.9946C31.0061 75.9904 25.0491 75.9904 19.092 75.9904Z" fill="white"/>
<path d="M55.3366 65.6469C56.3499 64.7519 57.3842 63.8822 58.3721 62.9576C58.8788 62.4805 59.4023 62.2061 60.1115 62.2821C60.5971 62.3328 61.0868 62.2906 61.5765 62.2948C61.7159 62.2948 61.9058 62.2568 61.9565 62.4257C62.0029 62.5861 61.8341 62.6705 61.7285 62.7634C60.6013 63.7007 59.4909 64.6548 58.3384 65.5625C57.912 65.896 57.8233 66.2 57.9964 66.7151C58.5115 68.2434 58.9717 69.7886 59.4487 71.3253C59.626 71.891 59.5838 71.9586 58.9928 71.9628C58.3595 71.9713 57.7262 71.9501 57.0929 71.967C56.6961 71.9755 56.5061 71.8024 56.409 71.4266C56.1641 70.4809 55.9108 69.5352 55.6364 68.598C55.552 68.3025 55.514 67.8761 55.0876 67.9014C54.6823 67.9267 54.5007 68.2687 54.4036 68.6487C54.163 69.5775 53.8885 70.4978 53.669 71.4309C53.5677 71.853 53.3439 71.9881 52.9429 71.9713C52.4911 71.9501 52.0394 71.9713 51.5876 71.967C50.9966 71.9586 50.9586 71.9121 51.1148 71.3295C51.7945 68.7922 52.4784 66.2591 53.1582 63.726C53.479 62.5397 53.8126 61.3533 54.1123 60.1585C54.2221 59.7237 54.3994 59.5337 54.8849 59.5337C56.5399 59.5464 56.789 59.8377 56.3668 61.4377C56.0037 62.8183 55.6279 64.1946 55.2564 65.5709C55.2733 65.592 55.3029 65.6174 55.3366 65.6469Z" fill="white"/>
<path d="M85.8859 64.0047C85.3624 64.0089 84.8727 64.0891 84.4758 64.4691C84.3069 64.6337 84.1001 64.6675 83.8763 64.6675C83.4246 64.6675 82.9728 64.6717 82.5211 64.6675C82.3269 64.6633 82.0778 64.7393 81.968 64.5408C81.8456 64.3171 82.0525 64.1355 82.1665 63.9624C82.6689 63.2025 83.3359 62.6283 84.1972 62.3117C85.6031 61.7966 87.0385 61.784 88.4612 62.2273C89.6223 62.5861 90.0824 63.5318 89.7489 64.6928C89.4196 65.8412 89.1199 66.998 88.799 68.1505C88.1868 70.3543 86.4094 71.7686 84.1338 71.8826C83.4668 71.9164 82.8082 72.0051 82.1327 71.8784C80.7437 71.6251 80.1062 70.7301 80.3553 69.3453C80.7015 67.4033 81.605 66.3478 84.4083 65.8581C84.9065 65.7694 85.4131 65.7187 85.907 65.6216C86.1899 65.5667 86.4643 65.4696 86.7261 65.3514C87.0638 65.1994 87.2918 64.9335 87.2327 64.5408C87.1736 64.1482 86.8189 64.1271 86.5234 64.0638C86.3208 64.0216 86.1012 64.0258 85.8859 64.0047ZM86.6205 67.0148C85.6622 67.4201 84.6363 67.4497 83.7032 67.8381C83.6357 67.8677 83.5723 67.9014 83.5132 67.9394C83.0362 68.2434 82.7026 68.9991 82.8715 69.4382C83.1079 70.0461 83.6441 69.9364 84.1212 69.8984C85.5102 69.7802 86.4981 68.6656 86.6205 67.0148Z" fill="white"/>
<path d="M48.4973 64.0045C47.9315 63.9834 47.4165 64.1016 46.9858 64.4942C46.8127 64.6547 46.5974 64.6715 46.3779 64.6715C45.943 64.6715 45.5082 64.6758 45.0733 64.6715C44.8791 64.6673 44.6343 64.7264 44.5329 64.5153C44.4401 64.3127 44.6258 64.1438 44.7271 63.9792C45.238 63.1686 45.9557 62.6071 46.8507 62.282C48.1679 61.8049 49.5232 61.8091 50.8573 62.168C52.1238 62.51 52.622 63.3881 52.3011 64.6547C51.9634 65.9888 51.6425 67.3313 51.1908 68.6232C50.4646 70.7003 48.8603 71.6756 46.7367 71.8698C46.057 71.9331 45.3773 72.0218 44.6849 71.874C43.2959 71.5785 42.7387 70.8354 42.9075 69.4338C43.1144 67.7282 44.1108 66.6178 45.8881 66.0985C46.7072 65.8579 47.56 65.7988 48.3959 65.6426C48.7168 65.5835 49.0334 65.499 49.3205 65.347C49.6245 65.1866 49.8567 64.946 49.8271 64.5787C49.7934 64.186 49.4429 64.1354 49.1474 64.0678C48.9363 64.0214 48.7126 64.0256 48.4973 64.0045ZM46.3779 69.9193C47.9526 69.8982 48.911 68.8132 49.1812 67.3355C49.2403 67.0104 49.0503 67.0822 48.8603 67.1329C48.2482 67.2891 47.6402 67.4453 47.028 67.5931C46.6565 67.6817 46.2934 67.7915 45.981 68.0152C45.5377 68.3361 45.2802 69.0665 45.466 69.514C45.6559 69.9615 46.0781 69.8813 46.3779 69.9193Z" fill="white"/>
<path d="M67.086 61.957C67.8164 61.9359 68.5341 61.9866 69.2138 62.2779C70.1764 62.6874 70.6239 63.4431 70.3833 64.4521C70.0456 65.858 69.6951 67.2723 69.2223 68.636C68.5299 70.6456 66.972 71.625 64.9202 71.8615C64.2447 71.9375 63.5608 72.0261 62.8684 71.8995C61.2641 71.6082 60.6519 70.692 61.0024 69.0962C61.3528 67.4919 62.366 66.5588 63.8985 66.1071C64.7345 65.8622 65.6042 65.8031 66.457 65.6385C66.8707 65.5582 67.2718 65.4485 67.5927 65.1656C68.0528 64.7561 67.96 64.2621 67.3647 64.127C66.5583 63.9455 65.7435 63.878 65.0469 64.4775C64.8865 64.6168 64.7049 64.6717 64.498 64.6717C63.9914 64.6717 63.4848 64.6843 62.9782 64.6717C62.4927 64.659 62.4293 64.5366 62.6869 64.1144C63.5186 62.7592 64.7725 62.1048 66.3261 61.9655C66.5752 61.9359 66.8327 61.957 67.086 61.957ZM64.4094 69.9194C65.9799 69.9025 66.9425 68.8302 67.2211 67.3356C67.2802 67.0148 67.0818 67.057 66.8961 67.1246C66.3008 67.3399 65.6802 67.4581 65.0596 67.5932C64.6838 67.6734 64.3249 67.7958 64.0168 68.0196C63.5861 68.3278 63.3286 69.0328 63.4806 69.4635C63.6537 69.9532 64.0928 69.8814 64.4094 69.9194Z" fill="white"/>
<path d="M31.6521 68.5726C31.8505 68.5726 32.0532 68.5895 32.2474 68.5683C32.6653 68.5219 32.9018 68.657 32.906 69.1172C32.906 69.3198 33.0158 69.4929 33.172 69.6365C33.8052 70.198 35.494 70.0755 36.0513 69.4212C36.3721 69.0454 36.313 68.6866 35.8697 68.4375C35.5024 68.2306 35.0887 68.1504 34.6834 68.0617C34.0459 67.9224 33.4211 67.7409 32.8215 67.4791C31.6563 66.9725 31.2468 66.1492 31.6183 64.9333C32.0616 63.481 33.096 62.5987 34.5272 62.1807C35.57 61.8767 36.6339 61.8556 37.6978 62.0878C38.9052 62.3538 39.5765 63.1095 39.6441 64.2494C39.6863 64.9544 39.5343 65.1191 38.8335 65.1191C38.5633 65.1191 38.2888 65.1107 38.0186 65.1191C37.6176 65.1318 37.3431 64.9544 37.1236 64.6209C36.6085 63.8314 35.19 63.6626 34.4765 64.2832C34.0417 64.6589 34.0754 65.0515 34.5905 65.3133C35.1098 65.5751 35.6755 65.7228 36.2455 65.8326C36.8365 65.9466 37.398 66.1577 37.9384 66.411C38.8841 66.8585 39.2134 67.5847 38.9517 68.6021C38.597 69.9784 37.7696 70.9664 36.4354 71.4603C34.9958 71.9965 33.5013 72.1147 32.0067 71.7263C30.3222 71.2914 30.1956 70.2571 30.3349 69.0201C30.3687 68.7288 30.5291 68.5641 30.8415 68.5683C31.1117 68.581 31.3819 68.5768 31.6521 68.5726C31.6521 68.5768 31.6521 68.5768 31.6521 68.5726Z" fill="white"/>
<path d="M18.6192 61.9486C19.3834 61.9612 20.1433 62.0119 20.8526 62.3285C21.7054 62.7127 22.1318 63.4515 21.9165 64.355C21.5703 65.7989 21.2241 67.2512 20.7428 68.6529C20.0589 70.6456 18.5094 71.6166 16.4745 71.8446C15.761 71.9248 15.0433 72.005 14.3129 71.8699C12.9028 71.6039 12.2991 70.8355 12.5018 69.417C12.7128 67.9183 13.4854 66.8417 14.942 66.2971C15.7484 65.9973 16.5801 65.8538 17.4244 65.744C17.9268 65.6807 18.4292 65.5962 18.8894 65.3598C19.2145 65.1909 19.4594 64.9292 19.4129 64.545C19.3665 64.1313 18.9865 64.0806 18.6699 64.0426C17.9057 63.9539 17.1458 63.9244 16.521 64.5154C16.3647 64.6632 16.1579 64.6632 15.9552 64.6674C15.5204 64.6674 15.0855 64.6717 14.6507 64.6674C14.4734 64.6632 14.2496 64.7223 14.1483 64.545C14.0301 64.3424 14.2158 64.1693 14.3172 64.0088C14.9842 62.9534 15.9595 62.3454 17.1585 62.0837C17.6397 61.9781 18.1295 61.9274 18.6192 61.9486ZM18.7839 66.9937C17.8846 67.3652 16.9769 67.4454 16.1241 67.7283C15.5753 67.9098 15.1869 68.2518 15.0095 68.8133C14.7984 69.493 15.0518 69.8645 15.7568 69.9025C17.4329 69.9912 18.6065 68.8977 18.7839 66.9937Z" fill="white"/>
<path d="M21.7941 71.9543C20.2446 71.9585 20.5233 71.9711 20.8568 70.7088C21.3128 68.9779 21.7518 67.2342 22.3091 65.5328C23.1408 62.9955 26.1806 61.5136 28.7348 62.32C30.3095 62.8182 30.9175 63.671 30.6262 65.3006C30.242 67.4411 29.5369 69.5014 28.9965 71.6039C28.9712 71.701 28.9037 71.8065 28.8234 71.8656C28.5828 72.0471 27.3205 71.95 27.0334 71.7389C26.5816 71.4096 26.645 70.9748 26.7674 70.5146C27.1938 68.9441 27.6244 67.3693 28.0297 65.7946C28.2957 64.7602 27.8693 64.2325 26.8012 64.2241C25.7246 64.2156 25.0491 64.7349 24.7367 65.8621C24.2638 67.572 23.8037 69.2861 23.3477 71.0001C23.0944 71.95 23.0986 71.95 22.1234 71.95C22.0094 71.9543 21.9038 71.9543 21.7941 71.9543Z" fill="white"/>
<path d="M77.7673 71.9628C77.514 71.9459 77.0453 71.9079 76.5767 71.8784C75.6479 71.8235 75.2637 71.3886 75.4453 70.443C75.6141 69.5564 75.8759 68.6867 76.1081 67.8127C76.7878 65.2754 77.4971 62.7507 78.143 60.205C78.295 59.6013 78.5737 59.3859 79.1563 59.4619C79.3547 59.4873 79.5573 59.4746 79.7516 59.5084C80.4102 59.6308 80.7099 60.0825 80.5621 60.7285C80.4777 61.1 80.3806 61.4673 80.2666 61.8304C80.1611 62.1639 80.2539 62.3159 80.6128 62.2863C80.6508 62.2821 80.6846 62.2821 80.7226 62.2863C80.9928 62.3328 81.3727 62.1428 81.5078 62.4679C81.6303 62.755 81.4234 63.0632 81.263 63.3249C80.9928 63.7682 80.5875 64.0426 80.0809 64.1102C79.76 64.1524 79.608 64.2833 79.5278 64.5915C79.1225 66.1493 78.6919 67.703 78.2866 69.2608C78.1472 69.7886 78.2866 69.9448 78.8396 69.9828C79.5405 70.0292 79.5405 70.0292 79.3674 70.692C79.3463 70.7807 79.3209 70.8651 79.2956 70.9538C79.0127 71.9628 79.0127 71.9628 77.7673 71.9628Z" fill="white"/>
<path d="M3.86806 71.9544C3.56831 71.9332 3.0828 71.8995 2.59728 71.8615C1.85424 71.8066 1.49116 71.3971 1.52071 70.6498C1.54182 70.1896 1.71069 69.7674 1.82891 69.3326C2.65217 66.2549 3.49231 63.1856 4.30713 60.1079C4.42112 59.6772 4.62377 59.5295 5.06284 59.5295C6.68403 59.521 6.92468 59.8292 6.4856 61.404C6.45183 61.5264 6.4265 61.6531 6.3885 61.7713C6.27873 62.1175 6.3885 62.2779 6.76002 62.299C7.04711 62.3159 7.44819 62.1555 7.57062 62.5396C7.68883 62.9069 7.43974 63.232 7.20754 63.5149C6.94579 63.8315 6.60804 64.0468 6.1943 64.0975C5.85655 64.1397 5.69612 64.3002 5.61168 64.6252C5.21483 66.1493 4.79687 67.665 4.39579 69.1891C4.23114 69.8139 4.35779 69.9954 5.01218 69.987C5.51036 69.9785 5.69612 70.1221 5.48503 70.616C5.44281 70.7131 5.43014 70.8271 5.40059 70.9327C5.13461 71.9586 5.13461 71.9586 3.86806 71.9544Z" fill="white"/>
<path d="M70.3073 71.9627C68.969 71.9627 68.9521 71.9585 69.3025 70.6877C69.7205 69.1679 69.9991 67.61 70.6028 66.1492C71.5401 63.8863 73.2753 62.662 75.6944 62.3834C77.2269 62.206 77.0243 62.3158 76.6865 63.5613C76.6781 63.595 76.6654 63.633 76.657 63.6668C76.3572 64.8109 76.3572 64.8151 75.1835 64.946C73.8874 65.0938 73.2373 65.6637 72.8615 67.0232C72.49 68.3657 72.148 69.7167 71.7849 71.0635C71.5401 71.9627 71.5359 71.9627 70.5775 71.9627C70.4888 71.9627 70.396 71.9627 70.3073 71.9627Z" fill="white"/>
<path d="M7.03446 71.9543C5.59481 71.9543 5.69613 72.0345 6.06343 70.7257C6.43495 69.4001 6.74315 68.0575 7.16111 66.7445C8.01392 64.0721 9.90531 62.6071 12.7086 62.3749C13.7599 62.2863 13.7599 62.2863 13.4981 63.3037C13.4052 63.671 13.2786 64.0341 13.2068 64.4056C13.1266 64.8067 12.8944 64.9122 12.5144 64.9207C10.6821 64.9587 10.0446 65.4653 9.55912 67.2427C9.20449 68.5346 8.85407 69.8307 8.5121 71.1226C8.29257 71.9501 8.29679 71.9501 7.41864 71.9543C7.28777 71.9543 7.16111 71.9543 7.03446 71.9543Z" fill="white"/>
<path d="M43.1228 61.5305C41.8267 61.5347 41.8183 61.5305 42.1645 60.2893C42.2531 59.9642 42.2151 59.4998 42.726 59.4829C43.3508 59.4618 44.0305 59.3225 44.4865 59.9178C44.8369 60.3695 44.6005 60.855 44.4443 61.3152C44.3809 61.4967 44.2163 61.5305 44.0432 61.5347C43.7392 61.5347 43.431 61.5305 43.1228 61.5305Z" fill="white"/>
</svg>